<?xml version="1.0" encoding="iso-8859-1"?>
<!-- Generator: Adobe Illustrator 19.0.0, SVG Export Plug-In . SVG Version: 6.00 Build 0)  -->
<svg version="1.1" id="Capa_1" xmlns="http://www.w3.org/2000/svg" xmlns:xlink="http://www.w3.org/1999/xlink" x="0px" y="0px"
	 viewBox="0 0 512 512" style="enable-background:new 0 0 512 512;" xml:space="preserve">
<g>
	<g>
		<path d="M507.605,443.959L403.572,339.94l43.184-43.184c9.409-9.408,2.76-25.605-10.605-25.605h-150c-8.291,0-15,6.709-15,15v150
			c0,13.361,16.229,20.046,25.605,10.605l43.198-43.169l104.004,104.018c5.856,5.856,15.352,5.86,21.21,0.002l42.437-42.437
			C513.437,459.338,513.485,449.839,507.605,443.959z"/>
	</g>
</g>
<g>
	<g>
		<path d="M507.606,46.656L465.169,4.219c-5.625-5.625-15.586-5.625-21.211,0L339.939,108.253l-43.184-43.184
			c-9.341-9.342-25.605-2.831-25.605,10.605v150c0,8.291,6.709,15.1,15,15.1h150c13.361,0,20.018-16.293,10.606-25.705
			l-43.184-43.184L507.606,67.867C513.486,61.987,513.439,52.489,507.606,46.656z"/>
	</g>
</g>
<g>
	<g>
		<path d="M215.244,65.244l-43.184,43.184L68.042,4.395c-5.856-5.856-15.349-5.862-21.211,0L4.394,46.831
			c-5.868,5.868-5.844,15.382,0,21.226l104.035,104.004l-43.184,43.184c-9.409,9.408-2.76,25.605,10.605,25.605h150
			c8.291,0,15-6.709,14.999-15.001v-150C240.849,62.488,224.651,55.837,215.244,65.244z"/>
	</g>
</g>
<g>
	<g>
		<path d="M225.848,271.149h-150c-6.064,0-11.543,3.648-13.857,9.258c-2.329,5.611-1.04,12.056,3.252,16.348l43.184,43.184
			L4.394,443.943c-5.844,5.844-5.868,15.358,0,21.226l42.437,42.436c5.86,5.86,15.352,5.86,21.211,0L172.059,403.57l43.184,43.184
			c9.473,9.507,25.605,2.672,25.605-10.605v-150C240.848,277.858,234.139,271.149,225.848,271.149z"/>
	</g>
</g>
<g>
</g>
<g>
</g>
<g>
</g>
<g>
</g>
<g>
</g>
<g>
</g>
<g>
</g>
<g>
</g>
<g>
</g>
<g>
</g>
<g>
</g>
<g>
</g>
<g>
</g>
<g>
</g>
<g>
</g>
</svg>
